<?xml version="1.0" encoding="UTF-8" standalone="no"?>
<!-- Generator: Adobe Illustrator 23.0.5, SVG Export Plug-In . SVG Version: 6.00 Build 0)  -->

<svg
   xmlns:dc="http://purl.org/dc/elements/1.1/"
   xmlns:cc="http://creativecommons.org/ns#"
   xmlns:rdf="http://www.w3.org/1999/02/22-rdf-syntax-ns#"
   xmlns:svg="http://www.w3.org/2000/svg"
   xmlns="http://www.w3.org/2000/svg"
   xmlns:sodipodi="http://sodipodi.sourceforge.net/DTD/sodipodi-0.dtd"
   xmlns:inkscape="http://www.inkscape.org/namespaces/inkscape"
   version="1.1"
   id="Layer_1"
   x="0px"
   y="0px"
   viewBox="0 0 1192.57 1000"
   style="enable-background:new 0 0 1192.57 1000;"
   xml:space="preserve"
   sodipodi:docname="Kikke-v1.svg"
   inkscape:version="0.92.2 5c3e80d, 2017-08-06"><metadata
     id="metadata490"><rdf:RDF><cc:Work
         rdf:about=""><dc:format>image/svg+xml</dc:format><dc:type
           rdf:resource="http://purl.org/dc/dcmitype/StillImage" /></cc:Work></rdf:RDF></metadata><defs
     id="defs488" /><sodipodi:namedview
     pagecolor="#ffffff"
     bordercolor="#666666"
     borderopacity="1"
     objecttolerance="10"
     gridtolerance="10"
     guidetolerance="10"
     inkscape:pageopacity="0"
     inkscape:pageshadow="2"
     inkscape:window-width="1440"
     inkscape:window-height="787"
     id="namedview486"
     showgrid="false"
     inkscape:zoom="0.574"
     inkscape:cx="484.78672"
     inkscape:cy="500"
     inkscape:window-x="0"
     inkscape:window-y="1"
     inkscape:window-maximized="1"
     inkscape:current-layer="Layer_1" /><style
     type="text/css"
     id="style270">
	.st0{fill:url(#SVGID_1_);}
	.st1{fill:url(#SVGID_2_);}
	.st2{fill:url(#SVGID_3_);}
	.st3{fill:#32045E;}
	.st4{fill:url(#SVGID_4_);}
	.st5{fill:url(#SVGID_5_);}
	.st6{fill:url(#SVGID_6_);}
	.st7{fill:url(#SVGID_7_);}
	.st8{fill:#FFFFFF;}
	.st9{opacity:0.31;}
	.st10{fill:url(#SVGID_8_);}
	.st11{fill:url(#SVGID_9_);}
	.st12{fill:url(#SVGID_10_);}
	.st13{fill:url(#SVGID_11_);}
	.st14{fill:url(#SVGID_12_);}
	.st15{fill:url(#SVGID_13_);}
	.st16{fill:#C176FE;}
	.st17{fill:#4E0099;}
	.st18{fill:#53172C;}
	.st19{fill:#D5A9FF;}
	.st20{fill:url(#SVGID_14_);}
	.st21{fill:#9749FC;}
	.st22{fill:#7700F6;}
	.st23{fill:url(#SVGID_15_);}
	.st24{fill:url(#SVGID_16_);}
	.st25{fill:url(#SVGID_17_);}
</style><g
     id="g307"><g
       id="g293"><linearGradient
         id="SVGID_1_"
         gradientUnits="userSpaceOnUse"
         x1="152.5628"
         y1="744.9423"
         x2="158.8367"
         y2="867.6747"><stop
           offset="0"
           style="stop-color:#7700F6"
           id="stop272" /><stop
           offset="1"
           style="stop-color:#C176FE"
           id="stop274" /></linearGradient><path
         class="st0"
         d="M190.75,865.9c-19.14,0.02-26.33-5.5-37.4-17.85c-13.67-15.24-28.64-29.35-43.56-43.42    c-8.09-7.62-12.55-16-11.73-27.3c0.58-8.06,0.1-16.2,0.47-24.28c0.09-1.94,1.37-5.1,2.66-5.42c1.82-0.44,4.75,0.65,6.2,2.1    c35.25,35.19,70.39,70.49,105.41,105.9c1.42,1.43,2.5,4.41,1.99,6.16c-0.41,1.41-3.41,2.74-5.36,2.89    C204.12,865.07,198.73,865.9,190.75,865.9z"
         id="path277" /><linearGradient
         id="SVGID_2_"
         gradientUnits="userSpaceOnUse"
         x1="171.1926"
         y1="743.3506"
         x2="173.6799"
         y2="792.0065"><stop
           offset="0"
           style="stop-color:#7700F6"
           id="stop279" /><stop
           offset="1"
           style="stop-color:#C176FE"
           id="stop281" /></linearGradient><path
         class="st1"
         d="M176.19,790.79c-2.84,1.83-6.55,1.68-9.4-0.13c-0.45-0.29-0.86-0.6-1.23-0.96    c-11.83-11.78-23.58-23.65-35.16-35.68c-1.43-1.48-2.9-5.01-2.18-6.01c1.2-1.64,4.16-2.76,6.39-2.78    c24.63-0.19,49.26-0.17,73.89-0.02c2.15,0.01,5.31,0.81,6.13,2.28c0.78,1.41-0.23,4.81-1.6,6.24    c-11.81,12.28-23.84,24.35-35.93,36.35C176.83,790.34,176.52,790.58,176.19,790.79z"
         id="path284" /><linearGradient
         id="SVGID_3_"
         gradientUnits="userSpaceOnUse"
         x1="120.0578"
         y1="815.3364"
         x2="122.61"
         y2="865.2639"><stop
           offset="0"
           style="stop-color:#7700F6"
           id="stop286" /><stop
           offset="1"
           style="stop-color:#C176FE"
           id="stop288" /></linearGradient><path
         class="st2"
         d="M124.47,864.96c-4.82,0-9.65,0.12-14.47-0.03c-8.26-0.25-11.68-3.6-11.78-11.75    c-0.11-9.14,0.02-18.27,0.1-27.41c0.01-1.54,0.17-3.11,0.49-4.61c1.14-5.32,4.58-6.53,8.4-2.74    c12.47,12.4,24.87,24.88,37.15,37.46c1.12,1.14,2.17,3.79,1.59,4.81c-0.92,1.63-3.15,3.36-4.96,3.5    C135.52,864.64,129.99,864.96,124.47,864.96C124.47,865.16,124.47,864.76,124.47,864.96z"
         id="path291" /></g><g
       id="g305"><path
         class="st3"
         d="M303.37,853.65l-19.59-30.53h-7.45v30.53h-21.52v-78.73h21.52v29.93h6.61l15.75-29.93h25l-24.64,37.74    l28.25,40.99H303.37z"
         id="path295" /><path
         class="st3"
         d="M350.13,781.77c-1.84,1.92-4.77,2.89-8.77,2.89c-4.01,0-6.91-0.96-8.71-2.89c-1.8-1.92-2.71-4.37-2.71-7.33    c0-3.04,0.9-5.55,2.71-7.51c1.8-1.96,4.71-2.94,8.71-2.94c4.01,0,6.93,0.98,8.77,2.94c1.84,1.97,2.77,4.47,2.77,7.51    C352.9,777.4,351.97,779.84,350.13,781.77z M331.26,853.65l-0.36-58.9h21.04l-0.36,58.9H331.26z"
         id="path297" /><path
         class="st3"
         d="M404.46,853.65l-12.74-21.16h-6.37v21.16h-20.43V763.5h20.43v51.57h5.89l10.46-20.43l22.96,0.12l-17.91,27.77    l20.92,31.13H404.46z"
         id="path299" /><path
         class="st3"
         d="M472.38,853.65l-12.74-21.16h-6.37v21.16h-20.43V763.5h20.43v51.57h5.89l10.46-20.43l22.96,0.12l-17.91,27.77    l20.92,31.13H472.38z"
         id="path301" /><path
         class="st3"
         d="M552.31,821.91c0,1.28-0.16,3.85-0.48,7.69l-37.38,0.72c0.64,3.61,1.94,6.13,3.91,7.57    c1.96,1.44,4.83,2.2,8.6,2.28c4.73,0.16,10.66-0.76,17.79-2.76l3.61,12.62c-8.17,3.21-15.67,4.81-22.48,4.81    c-9.78,0-17.31-2.66-22.6-7.99c-5.29-5.33-7.93-12.44-7.93-21.34c0-3.28,0.3-6.41,0.9-9.38c0.6-2.96,1.64-5.81,3.12-8.53    c1.48-2.72,3.35-5.09,5.59-7.09c2.24-2,5.09-3.61,8.54-4.81c3.44-1.2,7.33-1.8,11.66-1.8    C543.25,793.91,552.31,803.24,552.31,821.91z M526.11,807.61c-3.45,0-6.15,0.82-8.11,2.46c-1.96,1.64-3.18,4.55-3.67,8.71    l20.07-0.48v-2.28C534.4,810.42,531.64,807.61,526.11,807.61z"
         id="path303" /></g></g><g
     id="g330"
     transform="translate(0.25654013)"
     inkscape:export-xdpi="499.86978"
     inkscape:export-ydpi="499.86978"><linearGradient
       id="SVGID_4_"
       gradientUnits="userSpaceOnUse"
       x1="317.03381"
       y1="327.98029"
       x2="330.15359"
       y2="584.63483"><stop
         offset="0"
         style="stop-color:#7700F6"
         id="stop309" /><stop
         offset="1"
         style="stop-color:#C176FE"
         id="stop311" /></linearGradient><path
       class="st4"
       d="m 396.89,580.91 c -40.02,0.05 -55.05,-11.49 -78.22,-37.32 -28.58,-31.87 -59.9,-61.39 -91.09,-90.79 -16.91,-15.94 -26.24,-33.47 -24.53,-57.09 1.22,-16.86 0.21,-33.87 0.98,-50.78 0.19,-4.06 2.86,-10.67 5.56,-11.32 3.81,-0.92 9.93,1.37 12.95,4.39 73.71,73.59 147.19,147.41 220.43,221.46 2.97,3 5.23,9.22 4.17,12.87 -0.86,2.94 -7.14,5.74 -11.2,6.04 -11.1,0.81 -22.35,2.54 -39.05,2.54 z"
       id="path314"
       style="fill:url(#SVGID_4_)"
       inkscape:connector-curvature="0" /><linearGradient
       id="SVGID_5_"
       gradientUnits="userSpaceOnUse"
       x1="355.992"
       y1="324.65179"
       x2="361.19312"
       y2="426.3996"><stop
         offset="0"
         style="stop-color:#7700F6"
         id="stop316" /><stop
         offset="1"
         style="stop-color:#C176FE"
         id="stop318" /></linearGradient><path
       class="st5"
       d="m 366.44,423.86 c -5.94,3.84 -13.69,3.52 -19.66,-0.28 -0.94,-0.6 -1.8,-1.25 -2.57,-2.02 -24.75,-24.63 -49.32,-49.45 -73.52,-74.62 -2.99,-3.1 -6.07,-10.48 -4.56,-12.56 2.5,-3.44 8.7,-5.77 13.37,-5.81 51.51,-0.39 103.02,-0.36 154.52,-0.04 4.49,0.03 11.11,1.69 12.81,4.77 1.62,2.94 -0.49,10.06 -3.36,13.04 -24.7,25.67 -49.84,50.92 -75.14,76.01 -0.56,0.57 -1.2,1.06 -1.89,1.51 z"
       id="path321"
       style="fill:url(#SVGID_5_)"
       inkscape:connector-curvature="0" /><linearGradient
       id="SVGID_6_"
       gradientUnits="userSpaceOnUse"
       x1="249.0602"
       y1="475.18649"
       x2="254.39729"
       y2="579.59351"><stop
         offset="0"
         style="stop-color:#7700F6"
         id="stop323" /><stop
         offset="1"
         style="stop-color:#C176FE"
         id="stop325" /></linearGradient><path
       class="st6"
       d="m 258.29,578.96 c -10.09,0 -20.18,0.25 -30.25,-0.06 -17.28,-0.53 -24.42,-7.53 -24.63,-24.57 -0.23,-19.1 0.04,-38.21 0.21,-57.32 0.03,-3.22 0.36,-6.5 1.03,-9.65 2.38,-11.12 9.58,-13.66 17.56,-5.72 26.09,25.92 52,52.02 77.69,78.34 2.33,2.39 4.53,7.93 3.33,10.06 -1.93,3.41 -6.6,7.02 -10.37,7.33 -11.46,0.93 -23.04,1.59 -34.57,1.59 0,0.42 0,-0.42 0,0 z"
       id="path328"
       style="fill:url(#SVGID_6_)"
       inkscape:connector-curvature="0" /></g><linearGradient
     id="SVGID_7_"
     gradientUnits="userSpaceOnUse"
     x1="942.6799"
     y1="1115.5234"
     x2="929.784"
     y2="39.9989"><stop
       offset="0"
       style="stop-color:#7700F6"
       id="stop332" /><stop
       offset="1"
       style="stop-color:#C176FE"
       id="stop334" /></linearGradient><rect
     x="678.03"
     class="st7"
     width="514.55"
     height="1000"
     id="rect337" /><g
     id="g349"><path
       class="st8"
       d="M892.72,110.98l-11.27-17.57h-4.29v17.57h-12.38v-45.3h12.38v17.22h3.8l9.06-17.22h14.38L890.23,87.4   l16.25,23.58H892.72z"
       id="path339" /><path
       class="st8"
       d="M919.62,69.63c-1.06,1.11-2.74,1.66-5.05,1.66c-2.31,0-3.98-0.55-5.01-1.66c-1.04-1.11-1.56-2.51-1.56-4.22   c0-1.75,0.52-3.19,1.56-4.32c1.04-1.13,2.71-1.69,5.01-1.69c2.31,0,3.99,0.57,5.05,1.69c1.06,1.13,1.59,2.57,1.59,4.32   C921.21,67.12,920.68,68.52,919.62,69.63z M908.76,110.98l-0.21-33.89h12.1l-0.21,33.89H908.76z"
       id="path341" /><path
       class="st8"
       d="M950.87,110.98l-7.33-12.17h-3.67v12.17h-11.76V59.12h11.76v29.67h3.39l6.02-11.76l13.21,0.07l-10.3,15.97   l12.03,17.91H950.87z"
       id="path343" /><path
       class="st8"
       d="M989.94,110.98l-7.33-12.17h-3.66v12.17h-11.76V59.12h11.76v29.67h3.39l6.02-11.76l13.21,0.07l-10.3,15.97   l12.03,17.91H989.94z"
       id="path345" /><path
       class="st8"
       d="M1035.93,92.73c0,0.74-0.09,2.21-0.28,4.43l-21.51,0.42c0.37,2.07,1.12,3.53,2.25,4.36   c1.13,0.83,2.78,1.27,4.94,1.31c2.72,0.09,6.13-0.44,10.23-1.59l2.07,7.26c-4.7,1.84-9.01,2.77-12.93,2.77   c-5.62,0-9.96-1.53-13-4.6c-3.04-3.07-4.56-7.16-4.56-12.27c0-1.89,0.17-3.69,0.52-5.39c0.35-1.7,0.94-3.34,1.8-4.91   c0.85-1.57,1.92-2.93,3.22-4.08c1.29-1.15,2.93-2.07,4.91-2.77c1.98-0.69,4.22-1.04,6.71-1.04   C1030.72,76.61,1035.93,81.98,1035.93,92.73z M1020.86,84.5c-1.98,0-3.54,0.47-4.67,1.42c-1.13,0.95-1.83,2.62-2.11,5.01   l11.55-0.28v-1.31C1025.63,86.11,1024.04,84.5,1020.86,84.5z"
       id="path347" /></g><g
     class="st9"
     id="g372"><linearGradient
       id="SVGID_8_"
       gradientUnits="userSpaceOnUse"
       x1="928.9169"
       y1="364.5891"
       x2="955.4468"
       y2="883.5794"><stop
         offset="0"
         style="stop-color:#7700F6"
         id="stop351" /><stop
         offset="1"
         style="stop-color:#C176FE"
         id="stop353" /></linearGradient><path
       class="st10"
       d="M1090.4,876.06c-80.93,0.1-111.33-23.24-158.17-75.47c-57.8-64.45-121.12-124.13-184.2-183.6   c-34.19-32.24-53.06-67.68-49.6-115.45c2.47-34.09,0.42-68.5,1.99-102.69c0.38-8.22,5.79-21.58,11.23-22.9   c7.71-1.87,20.07,2.76,26.2,8.87c149.05,148.81,297.63,298.09,445.75,447.83c6,6.06,10.58,18.64,8.43,26.03   c-1.73,5.95-14.44,11.61-22.66,12.21C1146.91,872.55,1124.16,876.06,1090.4,876.06z"
       id="path356" /><linearGradient
       id="SVGID_9_"
       gradientUnits="userSpaceOnUse"
       x1="1007.6956"
       y1="357.8583"
       x2="1018.213"
       y2="563.6063"><stop
         offset="0"
         style="stop-color:#7700F6"
         id="stop358" /><stop
         offset="1"
         style="stop-color:#C176FE"
         id="stop360" /></linearGradient><path
       class="st11"
       d="M1028.82,558.48c-12.01,7.76-27.69,7.11-39.75-0.57c-1.89-1.21-3.64-2.54-5.19-4.08   c-50.05-49.81-99.73-100-148.67-150.9c-6.04-6.28-12.28-21.19-9.22-25.39c5.06-6.95,17.6-11.67,27.03-11.74   c104.15-0.79,208.31-0.72,312.46-0.09c9.07,0.06,22.47,3.42,25.91,9.65c3.29,5.95-0.99,20.34-6.79,26.37   c-49.94,51.92-100.79,102.96-151.94,153.7C1031.52,556.57,1030.22,557.57,1028.82,558.48z"
       id="path363" /><linearGradient
       id="SVGID_10_"
       gradientUnits="userSpaceOnUse"
       x1="791.465"
       y1="662.26"
       x2="802.2573"
       y2="873.3852"><stop
         offset="0"
         style="stop-color:#7700F6"
         id="stop365" /><stop
         offset="1"
         style="stop-color:#C176FE"
         id="stop367" /></linearGradient><path
       class="st12"
       d="M810.13,872.1c-20.39,0-40.8,0.51-61.18-0.11c-34.94-1.07-49.38-15.23-49.81-49.69   c-0.47-38.63,0.08-77.27,0.43-115.91c0.06-6.52,0.73-13.14,2.09-19.51c4.8-22.49,19.37-27.61,35.51-11.57   c52.75,52.42,105.15,105.19,157.09,158.4c4.72,4.83,9.16,16.04,6.74,20.33c-3.9,6.9-13.34,14.19-20.97,14.82   C856.87,870.76,833.45,872.1,810.13,872.1C810.12,872.95,810.13,871.25,810.13,872.1z"
       id="path370" /></g><g
     id="g399"><path
       class="st8"
       d="M867.22,673.25h-98.95c-20.08,0-36.37-16.28-36.37-36.37v-98.95c0-20.08,16.28-36.37,36.37-36.37h98.95   c20.08,0,36.37,16.28,36.37,36.37v98.95C903.58,656.97,887.3,673.25,867.22,673.25z"
       id="path374" /><g
       id="g397"><linearGradient
         id="SVGID_11_"
         gradientUnits="userSpaceOnUse"
         x1="814.8633"
         y1="542.4589"
         x2="819.5203"
         y2="633.5623"><stop
           offset="0"
           style="stop-color:#7700F6"
           id="stop376" /><stop
           offset="1"
           style="stop-color:#C176FE"
           id="stop378" /></linearGradient><path
         class="st13"
         d="M843.21,632.24c-14.21,0.02-19.54-4.08-27.77-13.25c-10.15-11.31-21.26-21.79-32.33-32.23    c-6-5.66-9.31-11.88-8.71-20.27c0.43-5.98,0.07-12.02,0.35-18.03c0.07-1.44,1.02-3.79,1.97-4.02c1.35-0.33,3.52,0.48,4.6,1.56    c26.16,26.12,52.25,52.33,78.25,78.61c1.05,1.06,1.86,3.27,1.48,4.57c-0.3,1.04-2.53,2.04-3.98,2.14    C853.13,631.63,849.14,632.24,843.21,632.24z"
         id="path381" /><linearGradient
         id="SVGID_12_"
         gradientUnits="userSpaceOnUse"
         x1="828.692"
         y1="541.2774"
         x2="830.5383"
         y2="577.3943"><stop
           offset="0"
           style="stop-color:#7700F6"
           id="stop383" /><stop
           offset="1"
           style="stop-color:#C176FE"
           id="stop385" /></linearGradient><path
         class="st14"
         d="M832.4,576.49c-2.11,1.36-4.86,1.25-6.98-0.1c-0.33-0.21-0.64-0.45-0.91-0.72    c-8.78-8.74-17.51-17.55-26.1-26.49c-1.06-1.1-2.16-3.72-1.62-4.46c0.89-1.22,3.09-2.05,4.74-2.06    c18.28-0.14,36.57-0.13,54.85-0.01c1.59,0.01,3.94,0.6,4.55,1.69c0.58,1.04-0.17,3.57-1.19,4.63    c-8.77,9.11-17.69,18.07-26.67,26.98C832.87,576.16,832.65,576.33,832.4,576.49z"
         id="path388" /><linearGradient
         id="SVGID_13_"
         gradientUnits="userSpaceOnUse"
         x1="790.735"
         y1="594.7119"
         x2="792.6295"
         y2="631.7728"><stop
           offset="0"
           style="stop-color:#7700F6"
           id="stop390" /><stop
           offset="1"
           style="stop-color:#C176FE"
           id="stop392" /></linearGradient><path
         class="st15"
         d="M794.01,631.55c-3.58,0-7.16,0.09-10.74-0.02c-6.13-0.19-8.67-2.67-8.74-8.72    c-0.08-6.78,0.01-13.56,0.07-20.35c0.01-1.14,0.13-2.31,0.37-3.42c0.84-3.95,3.4-4.85,6.23-2.03c9.26,9.2,18.46,18.47,27.58,27.81    c0.83,0.85,1.61,2.82,1.18,3.57c-0.68,1.21-2.34,2.49-3.68,2.6C802.22,631.31,798.1,631.55,794.01,631.55    C794.01,631.7,794.01,631.4,794.01,631.55z"
         id="path395" /></g></g><g
     id="g411"><path
       class="st16"
       d="M1109.15,673.25h-98.95c-20.08,0-36.37-16.28-36.37-36.37v-98.95c0-20.08,16.28-36.37,36.37-36.37h98.95   c20.08,0,36.37,16.28,36.37,36.37v98.95C1145.52,656.97,1129.23,673.25,1109.15,673.25z"
       id="path401" /><g
       id="g409"><path
         class="st8"
         d="M1085.14,632.24c-14.21,0.02-19.54-4.08-27.77-13.25c-10.15-11.31-21.26-21.79-32.33-32.23    c-6-5.66-9.31-11.88-8.71-20.27c0.43-5.98,0.07-12.02,0.35-18.03c0.07-1.44,1.02-3.79,1.97-4.02c1.35-0.33,3.52,0.48,4.6,1.56    c26.16,26.12,52.25,52.33,78.25,78.61c1.05,1.06,1.86,3.27,1.48,4.57c-0.3,1.04-2.53,2.04-3.98,2.14    C1095.06,631.63,1091.07,632.24,1085.14,632.24z"
         id="path403" /><path
         class="st8"
         d="M1074.33,576.49c-2.11,1.36-4.86,1.25-6.98-0.1c-0.33-0.21-0.64-0.45-0.91-0.72    c-8.78-8.74-17.51-17.55-26.1-26.49c-1.06-1.1-2.16-3.72-1.62-4.46c0.89-1.22,3.09-2.05,4.74-2.06    c18.28-0.14,36.57-0.13,54.85-0.01c1.59,0.01,3.94,0.6,4.55,1.69c0.58,1.04-0.17,3.57-1.19,4.63    c-8.77,9.11-17.69,18.07-26.67,26.98C1074.81,576.16,1074.58,576.33,1074.33,576.49z"
         id="path405" /><path
         class="st8"
         d="M1035.94,631.55c-3.58,0-7.16,0.09-10.74-0.02c-6.13-0.19-8.67-2.67-8.74-8.72    c-0.08-6.78,0.01-13.56,0.07-20.35c0.01-1.14,0.13-2.31,0.37-3.42c0.84-3.95,3.4-4.85,6.23-2.03c9.26,9.2,18.46,18.47,27.58,27.81    c0.83,0.85,1.61,2.82,1.18,3.57c-0.68,1.21-2.34,2.49-3.68,2.6C1044.15,631.31,1040.04,631.55,1035.94,631.55    C1035.94,631.7,1035.94,631.4,1035.94,631.55z"
         id="path407" /></g></g><g
     id="g423"><path
       class="st17"
       d="M1109.15,898.73h-98.95c-20.08,0-36.37-16.28-36.37-36.37v-98.95c0-20.08,16.28-36.37,36.37-36.37h98.95   c20.08,0,36.37,16.28,36.37,36.37v98.95C1145.52,882.44,1129.23,898.73,1109.15,898.73z"
       id="path413" /><g
       id="g421"><path
         class="st8"
         d="M1085.14,857.72c-14.21,0.02-19.54-4.08-27.77-13.25c-10.15-11.31-21.26-21.79-32.33-32.23    c-6-5.66-9.31-11.88-8.71-20.27c0.43-5.98,0.07-12.02,0.35-18.03c0.07-1.44,1.02-3.79,1.97-4.02c1.35-0.33,3.52,0.48,4.6,1.56    c26.16,26.12,52.25,52.33,78.25,78.61c1.05,1.06,1.86,3.27,1.48,4.57c-0.3,1.04-2.53,2.04-3.98,2.14    C1095.06,857.1,1091.07,857.72,1085.14,857.72z"
         id="path415" /><path
         class="st8"
         d="M1074.33,801.97c-2.11,1.36-4.86,1.25-6.98-0.1c-0.33-0.21-0.64-0.45-0.91-0.72    c-8.78-8.74-17.51-17.55-26.1-26.49c-1.06-1.1-2.16-3.72-1.62-4.46c0.89-1.22,3.09-2.05,4.74-2.06    c18.28-0.14,36.57-0.13,54.85-0.02c1.59,0.01,3.94,0.6,4.55,1.69c0.58,1.04-0.17,3.57-1.19,4.63    c-8.77,9.11-17.69,18.07-26.67,26.98C1074.81,801.64,1074.58,801.81,1074.33,801.97z"
         id="path417" /><path
         class="st8"
         d="M1035.94,857.02c-3.58,0-7.16,0.09-10.74-0.02c-6.13-0.19-8.67-2.67-8.74-8.72    c-0.08-6.78,0.01-13.56,0.07-20.35c0.01-1.14,0.13-2.31,0.37-3.42c0.84-3.95,3.4-4.85,6.23-2.03c9.26,9.2,18.46,18.47,27.58,27.81    c0.83,0.85,1.61,2.82,1.18,3.57c-0.68,1.21-2.34,2.49-3.68,2.6C1044.15,856.79,1040.04,857.02,1035.94,857.02    C1035.94,857.17,1035.94,856.88,1035.94,857.02z"
         id="path419" /></g></g><g
     id="g435"><path
       class="st3"
       d="M867.22,898.73h-98.95c-20.08,0-36.37-16.28-36.37-36.37v-98.95c0-20.08,16.28-36.37,36.37-36.37h98.95   c20.08,0,36.37,16.28,36.37,36.37v98.95C903.58,882.44,887.3,898.73,867.22,898.73z"
       id="path425" /><g
       id="g433"><path
         class="st8"
         d="M843.21,857.72c-14.21,0.02-19.54-4.08-27.77-13.25c-10.15-11.31-21.26-21.79-32.33-32.23    c-6-5.66-9.31-11.88-8.71-20.27c0.43-5.98,0.07-12.02,0.35-18.03c0.07-1.44,1.02-3.79,1.97-4.02c1.35-0.33,3.52,0.48,4.6,1.56    c26.16,26.12,52.25,52.33,78.25,78.61c1.05,1.06,1.86,3.27,1.48,4.57c-0.3,1.04-2.53,2.04-3.98,2.14    C853.13,857.1,849.14,857.72,843.21,857.72z"
         id="path427" /><path
         class="st8"
         d="M832.4,801.97c-2.11,1.36-4.86,1.25-6.98-0.1c-0.33-0.21-0.64-0.45-0.91-0.72    c-8.78-8.74-17.51-17.55-26.1-26.49c-1.06-1.1-2.16-3.72-1.62-4.46c0.89-1.22,3.09-2.05,4.74-2.06    c18.28-0.14,36.57-0.13,54.85-0.02c1.59,0.01,3.94,0.6,4.55,1.69c0.58,1.04-0.17,3.57-1.19,4.63    c-8.77,9.11-17.69,18.07-26.67,26.98C832.87,801.64,832.65,801.81,832.4,801.97z"
         id="path429" /><path
         class="st8"
         d="M794.01,857.02c-3.58,0-7.16,0.09-10.74-0.02c-6.13-0.19-8.67-2.67-8.74-8.72    c-0.08-6.78,0.01-13.56,0.07-20.35c0.01-1.14,0.13-2.31,0.37-3.42c0.84-3.95,3.4-4.85,6.23-2.03c9.26,9.2,18.46,18.47,27.58,27.81    c0.83,0.85,1.61,2.82,1.18,3.57c-0.68,1.21-2.34,2.49-3.68,2.6C802.22,856.79,798.1,857.02,794.01,857.02    C794.01,857.17,794.01,856.88,794.01,857.02z"
         id="path431" /></g></g><g
     id="g459"><circle
       class="st18"
       cx="273.32"
       cy="935.68"
       r="10.82"
       id="circle437" /><circle
       class="st19"
       cx="273.32"
       cy="935.68"
       r="10.82"
       id="circle439" /><linearGradient
       id="SVGID_14_"
       gradientUnits="userSpaceOnUse"
       x1="288.4099"
       y1="935.6803"
       x2="310.0418"
       y2="935.6803"><stop
         offset="0"
         style="stop-color:#C99DF4"
         id="stop441" /><stop
         offset="1"
         style="stop-color:#C176FE"
         id="stop443" /></linearGradient><circle
       class="st20"
       cx="299.23"
       cy="935.68"
       r="10.82"
       id="circle446" /><circle
       class="st21"
       cx="325.14"
       cy="935.68"
       r="10.82"
       id="circle448" /><circle
       class="st22"
       cx="351.05"
       cy="935.68"
       r="10.82"
       id="circle450" /><linearGradient
       id="SVGID_15_"
       gradientUnits="userSpaceOnUse"
       x1="376.4026"
       y1="924.8782"
       x2="377.507"
       y2="946.4824"><stop
         offset="0"
         style="stop-color:#7700F6"
         id="stop452" /><stop
         offset="1"
         style="stop-color:#C176FE"
         id="stop454" /></linearGradient><circle
       class="st23"
       cx="376.95"
       cy="935.68"
       r="10.82"
       id="circle457" /></g><g
     id="g483"><circle
       class="st18"
       cx="617.92"
       cy="59.86"
       r="10.82"
       id="circle461" /><circle
       class="st19"
       cx="617.92"
       cy="59.86"
       r="10.82"
       id="circle463" /><linearGradient
       id="SVGID_16_"
       gradientUnits="userSpaceOnUse"
       x1="298.7297"
       y1="-205.8493"
       x2="320.3616"
       y2="-205.8493"
       gradientTransform="matrix(0 1 -1 0 412.0689 -223.7808)"><stop
         offset="0"
         style="stop-color:#C99DF4"
         id="stop465" /><stop
         offset="1"
         style="stop-color:#C176FE"
         id="stop467" /></linearGradient><circle
       class="st24"
       cx="617.92"
       cy="85.76"
       r="10.82"
       id="circle470" /><circle
       class="st21"
       cx="617.92"
       cy="111.67"
       r="10.82"
       id="circle472" /><circle
       class="st22"
       cx="617.92"
       cy="137.58"
       r="10.82"
       id="circle474" /><linearGradient
       id="SVGID_17_"
       gradientUnits="userSpaceOnUse"
       x1="386.7224"
       y1="-216.6514"
       x2="387.8268"
       y2="-195.0472"
       gradientTransform="matrix(0 1 -1 0 412.0689 -223.7808)"><stop
         offset="0"
         style="stop-color:#7700F6"
         id="stop476" /><stop
         offset="1"
         style="stop-color:#C176FE"
         id="stop478" /></linearGradient><circle
       class="st25"
       cx="617.92"
       cy="163.49"
       r="10.82"
       id="circle481" /></g><text
     xml:space="preserve"
     style="font-style:normal;font-weight:normal;font-size:40px;line-height:1.25;font-family:sans-serif;letter-spacing:0px;word-spacing:0px;fill:#32045e;fill-opacity:1;stroke:none"
     x="201.63419"
     y="670.73169"
     id="text494"
     inkscape:export-xdpi="499.86978"
     inkscape:export-ydpi="499.86978"><tspan
       sodipodi:role="line"
       id="tspan492"
       x="201.63419"
       y="670.73169"
       style="font-style:normal;font-variant:normal;font-weight:900;font-stretch:normal;font-size:96px;font-family:Roboto;-inkscape-font-specification:'Roboto, Heavy';font-variant-ligatures:normal;font-variant-caps:normal;font-variant-numeric:normal;font-feature-settings:normal;text-align:start;writing-mode:lr-tb;text-anchor:start;fill:#32045e;fill-opacity:1">Kikke</tspan></text>
</svg>